<svg xmlns="http://www.w3.org/2000/svg" xmlns:xlink="http://www.w3.org/1999/xlink" width="382.754" height="542.586" preserveAspectRatio="xMidYMid meet" version="1.1" viewBox="0 0 382.754 542.586" style="overflow:hidden;position:relative"><desc style="-webkit-tap-highlight-color:transparent">Created with Raphaël 2.2.0</desc><defs style="-webkit-tap-highlight-color:transparent"><path id="raphael-marker-block" stroke-linecap="round" d="M5,0 0,2.5 5,5z" style="-webkit-tap-highlight-color:transparent"/><marker id="raphael-marker-endblock33-objvalf4" markerHeight="3" markerWidth="3" orient="auto" refX="1.5" refY="1.5" style="-webkit-tap-highlight-color:transparent"><use fill="#000" stroke="none" stroke-width="1.667" transform="rotate(180 1.5 1.5) scale(0.6,0.6)" xlink:href="#raphael-marker-block" style="-webkit-tap-highlight-color:transparent"/></marker><marker id="raphael-marker-endblock33-objloe8h" markerHeight="3" markerWidth="3" orient="auto" refX="1.5" refY="1.5" style="-webkit-tap-highlight-color:transparent"><use fill="#000" stroke="none" stroke-width="1.667" transform="rotate(180 1.5 1.5) scale(0.6,0.6)" xlink:href="#raphael-marker-block" style="-webkit-tap-highlight-color:transparent"/></marker><marker id="raphael-marker-endblock33-obj1iv2c" markerHeight="3" markerWidth="3" orient="auto" refX="1.5" refY="1.5" style="-webkit-tap-highlight-color:transparent"><use fill="#000" stroke="none" stroke-width="1.667" transform="rotate(180 1.5 1.5) scale(0.6,0.6)" xlink:href="#raphael-marker-block" style="-webkit-tap-highlight-color:transparent"/></marker><marker id="raphael-marker-endblock33-obj4dfbl" markerHeight="3" markerWidth="3" orient="auto" refX="1.5" refY="1.5" style="-webkit-tap-highlight-color:transparent"><use fill="#000" stroke="none" stroke-width="1.667" transform="rotate(180 1.5 1.5) scale(0.6,0.6)" xlink:href="#raphael-marker-block" style="-webkit-tap-highlight-color:transparent"/></marker><marker id="raphael-marker-endblock33-objwlk31" markerHeight="3" markerWidth="3" orient="auto" refX="1.5" refY="1.5" style="-webkit-tap-highlight-color:transparent"><use fill="#000" stroke="none" stroke-width="1.667" transform="rotate(180 1.5 1.5) scale(0.6,0.6)" xlink:href="#raphael-marker-block" style="-webkit-tap-highlight-color:transparent"/></marker><marker id="raphael-marker-endblock33-objpe1cf" markerHeight="3" markerWidth="3" orient="auto" refX="1.5" refY="1.5" style="-webkit-tap-highlight-color:transparent"><use fill="#000" stroke="none" stroke-width="1.667" transform="rotate(180 1.5 1.5) scale(0.6,0.6)" xlink:href="#raphael-marker-block" style="-webkit-tap-highlight-color:transparent"/></marker><marker id="raphael-marker-endblock33-objoal04" markerHeight="3" markerWidth="3" orient="auto" refX="1.5" refY="1.5" style="-webkit-tap-highlight-color:transparent"><use fill="#000" stroke="none" stroke-width="1.667" transform="rotate(180 1.5 1.5) scale(0.6,0.6)" xlink:href="#raphael-marker-block" style="-webkit-tap-highlight-color:transparent"/></marker><marker id="raphael-marker-endblock33-objyk7ra" markerHeight="3" markerWidth="3" orient="auto" refX="1.5" refY="1.5" style="-webkit-tap-highlight-color:transparent"><use fill="#000" stroke="none" stroke-width="1.667" transform="rotate(180 1.5 1.5) scale(0.6,0.6)" xlink:href="#raphael-marker-block" style="-webkit-tap-highlight-color:transparent"/></marker></defs><a xlink:href="http://www.google.com" xlink:show="new" style="-webkit-tap-highlight-color:transparent"><rect style="-webkit-tap-highlight-color:transparent" id="st" width="49.563" height="36" x="0" y="0" fill="#fff" stroke="#000" stroke-width="3" class="flowchart" rx="20" ry="20" transform="matrix(1,0,0,1,68.0234,27.5977)"/></a><a xlink:href="http://www.google.com" xlink:show="new" style="-webkit-tap-highlight-color:transparent"><text id="stt" x="10" y="18" fill="#000" stroke="none" stroke-width="1" class="flowchartt" font-family="&quot;Arial&quot;" font-size="14" text-anchor="start" transform="matrix(1,0,0,1,68.0234,27.5977)" style="-webkit-tap-highlight-color:transparent;text-anchor:start;font-family:Arial;font-size:14px"><tspan dy="5" style="-webkit-tap-highlight-color:transparent">Start</tspan></text></a><rect style="-webkit-tap-highlight-color:transparent" id="op1" width="104.031" height="36" x="0" y="0" fill="#fff" stroke="#000" stroke-width="3" class="flowchart" rx="0" ry="0" transform="matrix(1,0,0,1,40.7891,141.1953)"/><text id="op1t" x="10" y="18" fill="#000" stroke="none" stroke-width="1" class="flowchartt" font-family="&quot;Arial&quot;" font-size="14" text-anchor="start" transform="matrix(1,0,0,1,40.7891,141.1953)" style="-webkit-tap-highlight-color:transparent;text-anchor:start;font-family:Arial;font-size:14px"><tspan dy="5" style="-webkit-tap-highlight-color:transparent">My Operation</tspan></text><a xlink:href="http://www.google.com" style="-webkit-tap-highlight-color:transparent"><path id="cond" fill="#fff" stroke="#000" stroke-width="3" d="M27.005859375,19.798828125L0,39.59765625L54.01171875,79.1953125L108.0234375,39.59765625L54.01171875,0L0,39.59765625" class="flowchart" transform="matrix(1,0,0,1,38.793,233.1953)" style="-webkit-tap-highlight-color:transparent"/></a><a xlink:href="http://www.google.com" style="-webkit-tap-highlight-color:transparent"><text id="condt" x="32.006" y="39.598" fill="#000" stroke="none" stroke-width="1" class="flowchartt" font-family="&quot;Arial&quot;" font-size="14" text-anchor="start" transform="matrix(1,0,0,1,38.793,233.1953)" style="-webkit-tap-highlight-color:transparent;text-anchor:start;font-family:Arial;font-size:14px"><tspan dy="-3.395" style="-webkit-tap-highlight-color:transparent">Yes</tspan><tspan x="32.006" dy="16.8" style="-webkit-tap-highlight-color:transparent">or No?</tspan></text></a><path id="io" fill="#fff" stroke="#000" stroke-width="3" d="M10,18L0,36L153.609375,36L173.609375,0L20,0L10,18" class="flowchart" transform="matrix(1,0,0,1,6,389.9883)" style="-webkit-tap-highlight-color:transparent"/><text id="iot" x="30" y="18" fill="#000" stroke="none" stroke-width="1" class="flowchartt" font-family="&quot;Arial&quot;" font-size="14" text-anchor="start" transform="matrix(1,0,0,1,6,389.9883)" style="-webkit-tap-highlight-color:transparent;text-anchor:start;font-family:Arial;font-size:14px"><tspan dy="5" style="-webkit-tap-highlight-color:transparent">catch something...</tspan></text><a xlink:href="http://www.google.com" style="-webkit-tap-highlight-color:transparent"><rect style="-webkit-tap-highlight-color:transparent" id="e" width="44.906" height="36" x="0" y="0" fill="#fff" stroke="#000" stroke-width="3" class="flowchart" rx="20" ry="20" transform="matrix(1,0,0,1,70.3516,503.5859)"/></a><a xlink:href="http://www.google.com" style="-webkit-tap-highlight-color:transparent"><text id="et" x="10" y="18" fill="#000" stroke="none" stroke-width="1" class="flowchartt" font-family="&quot;Arial&quot;" font-size="14" text-anchor="start" transform="matrix(1,0,0,1,70.3516,503.5859)" style="-webkit-tap-highlight-color:transparent;text-anchor:start;font-family:Arial;font-size:14px"><tspan dy="5" style="-webkit-tap-highlight-color:transparent">End</tspan></text></a><rect style="-webkit-tap-highlight-color:transparent" id="para" width="101.703" height="36" x="0" y="0" fill="#fff" stroke="#000" stroke-width="3" class="flowchart" rx="0" ry="0" transform="matrix(1,0,0,1,238.7695,254.793)"/><text id="parat" x="10" y="18" fill="#000" stroke="none" stroke-width="1" class="flowchartt" font-family="&quot;Arial&quot;" font-size="14" text-anchor="start" transform="matrix(1,0,0,1,238.7695,254.793)" style="-webkit-tap-highlight-color:transparent;text-anchor:start;font-family:Arial;font-size:14px"><tspan dy="5" style="-webkit-tap-highlight-color:transparent">parallel tasks</tspan></text><rect style="-webkit-tap-highlight-color:transparent" id="sub1" width="130.266" height="36" x="0" y="0" fill="#fff" stroke="#000" stroke-width="3" class="flowchart" rx="0" ry="0" transform="matrix(1,0,0,1,224.4883,368.3906)"/><rect style="-webkit-tap-highlight-color:transparent" id="sub1i" width="110.266" height="36" x="10" y="0" fill="#fff" stroke="#000" stroke-width="3" rx="0" ry="0" transform="matrix(1,0,0,1,224.4883,368.3906)"/><text id="sub1t" x="20" y="18" fill="#000" stroke="none" stroke-width="1" class="flowchartt" font-family="&quot;Arial&quot;" font-size="14" text-anchor="start" transform="matrix(1,0,0,1,224.4883,368.3906)" style="-webkit-tap-highlight-color:transparent;text-anchor:start;font-family:Arial;font-size:14px"><tspan dy="5" style="-webkit-tap-highlight-color:transparent">My Subroutine</tspan></text><path fill="none" stroke="#000" stroke-width="3" marker-end="url(#raphael-marker-endblock33-objvalf4)" d="M92.8046875,63.59765625C92.8046875,63.59765625,92.8046875,120.1266892105341,92.8046875,136.68792933569057" style="-webkit-tap-highlight-color:transparent"/><path fill="none" stroke="#000" stroke-width="3" marker-end="url(#raphael-marker-endblock33-objloe8h)" d="M92.8046875,177.1953125C92.8046875,177.1953125,92.8046875,215.39608335494995,92.8046875,228.69547281763516" style="-webkit-tap-highlight-color:transparent"/><path fill="none" stroke="#000" stroke-width="3" marker-end="url(#raphael-marker-endblock33-obj1iv2c)" d="M92.8046875,312.390625C92.8046875,312.390625,92.8046875,368.9196579605341,92.8046875,385.48089808569057" style="-webkit-tap-highlight-color:transparent"/><text x="97.805" y="322.391" fill="#000" stroke="none" stroke-width="1" font-family="&quot;Arial&quot;" font-size="14" text-anchor="start" style="-webkit-tap-highlight-color:transparent;text-anchor:start;font-family:Arial;font-size:14px"><tspan dy="5" style="-webkit-tap-highlight-color:transparent">yes</tspan></text><path fill="none" stroke="#000" stroke-width="3" marker-end="url(#raphael-marker-endblock33-obj4dfbl)" d="M146.81640625,272.79296875C146.81640625,272.79296875,215.8108026534319,272.79296875,234.27219387856894,272.79296875" style="-webkit-tap-highlight-color:transparent"/><text x="151.816" y="262.793" fill="#000" stroke="none" stroke-width="1" font-family="&quot;Arial&quot;" font-size="14" text-anchor="start" style="-webkit-tap-highlight-color:transparent;text-anchor:start;font-family:Arial;font-size:14px"><tspan dy="5.012" style="-webkit-tap-highlight-color:transparent">no</tspan></text><path fill="none" stroke="#000" stroke-width="3" marker-end="url(#raphael-marker-endblock33-objwlk31)" d="M92.8046875,425.98828125C92.8046875,425.98828125,92.8046875,482.5173142105341,92.8046875,499.07855433569057" style="-webkit-tap-highlight-color:transparent"/><path fill="none" stroke="#000" stroke-width="3" marker-end="url(#raphael-marker-endblock33-objpe1cf)" d="M289.62109375,290.79296875C289.62109375,290.79296875,289.62109375,347.3220017105341,289.62109375,363.88324183569057" style="-webkit-tap-highlight-color:transparent"/><path fill="none" stroke="#000" stroke-width="3" marker-end="url(#raphael-marker-endblock33-objoal04)" d="M289.62109375,254.79296875C289.62109375,254.79296875,289.62109375,116.1953125,289.62109375,116.1953125C289.62109375,116.1953125,92.8046875,116.1953125,92.8046875,116.1953125C92.8046875,116.1953125,92.8046875,129.49928379058838,92.8046875,136.6969401333481" style="-webkit-tap-highlight-color:transparent"/><path fill="none" stroke="#000" stroke-width="3" marker-end="url(#raphael-marker-endblock33-objyk7ra)" d="M354.75390625,386.390625C354.75390625,386.390625,379.75390625,386.390625,379.75390625,386.390625C379.75390625,386.390625,379.75390625,116.1953125,379.75390625,116.1953125C379.75390625,116.1953125,92.8046875,116.1953125,92.8046875,116.1953125C92.8046875,116.1953125,92.8046875,129.49928379058838,92.8046875,136.6969401333481" style="-webkit-tap-highlight-color:transparent"/></svg>